<svg width="283" height="206" viewBox="0 0 283 206" fill="none" xmlns="http://www.w3.org/2000/svg">
<path d="M25.444 206C18.2015 206 12.1026 203.596 7.1472 198.787C2.3824 193.979 0 187.824 0 180.322C0 173.013 2.3824 166.954 7.1472 162.146C12.1026 157.337 18.2015 154.933 25.444 154.933C32.6865 154.933 38.6902 157.337 43.455 162.146C48.2198 166.954 50.6022 173.109 50.6022 180.611C50.6022 188.112 48.2198 194.267 43.455 199.076C38.6902 203.692 32.6865 206 25.444 206ZM25.444 106.174C18.2015 106.174 12.1026 103.769 7.1472 98.9608C2.3824 94.1522 0 87.9972 0 80.4958C0 73.1867 2.3824 67.1279 7.1472 62.3193C12.1026 57.5107 18.2015 55.1065 25.444 55.1065C32.6865 55.1065 38.6902 57.5107 43.455 62.3193C48.2198 67.1279 50.6022 73.2829 50.6022 80.7843C50.6022 88.2857 48.2198 94.4407 43.455 99.2493C38.6902 103.866 32.6865 106.174 25.444 106.174Z" fill="#3E51F9"/>
<path d="M71.7891 201.961V0H106.382V201.961H71.7891Z" fill="#3E51F9"/>
<path d="M131.479 201.961V0H197.234L244.405 178.591H248.979V0H283V201.961H217.532L170.36 23.3698H165.5V201.961H131.479Z" fill="#3E51F9"/>
</svg>
