<svg width="55" height="40" viewBox="0 0 55 40" fill="none" xmlns="http://www.w3.org/2000/svg">
<path d="M4.94495 40C3.5374 40 2.35209 39.5331 1.38903 38.5994C0.463011 37.6657 0 36.4706 0 35.014C0 33.5948 0.463011 32.4183 1.38903 31.4846C2.35209 30.5509 3.5374 30.084 4.94495 30.084C6.3525 30.084 7.51929 30.5509 8.44531 31.4846C9.37133 32.4183 9.83434 33.6134 9.83434 35.07C9.83434 36.5266 9.37133 37.7218 8.44531 38.6555C7.51929 39.5518 6.3525 40 4.94495 40ZM4.94495 20.6162C3.5374 20.6162 2.35209 20.1494 1.38903 19.2157C0.463011 18.282 0 17.0868 0 15.6303C0 14.211 0.463011 13.0345 1.38903 12.1008C2.35209 11.1671 3.5374 10.7003 4.94495 10.7003C6.3525 10.7003 7.51929 11.1671 8.44531 12.1008C9.37133 13.0345 9.83434 14.2297 9.83434 15.6863C9.83434 17.1429 9.37133 18.338 8.44531 19.2717C7.51929 20.1681 6.3525 20.6162 4.94495 20.6162Z" fill="#3E51F9"/>
<path d="M13.952 39.2157V0H20.6749V39.2157H13.952Z" fill="#3E51F9"/>
<path d="M25.5525 39.2157V0H38.3316L47.4992 34.6779H48.3882V0H55V39.2157H42.2765L33.1089 4.53782H32.1643V39.2157H25.5525Z" fill="#3E51F9"/>
</svg>
